<svg width="430" height="96" viewBox="0 0 430 96" fill="none" xmlns="http://www.w3.org/2000/svg">
<g clip-path="url(#clip0_9197_1100)">
<path d="M428.149 30.133H418.263C417.48 30.133 416.849 30.7627 416.849 31.5449V32.791C416.352 32.3535 415.827 31.9426 415.27 31.5714C412.862 29.9143 410.048 29.0857 406.837 29.0857C403.36 29.0857 400.281 29.9143 397.601 31.5714C394.927 33.2285 392.81 35.5286 391.258 38.4716C389.758 41.3616 389.008 44.6493 389.008 48.3414C389.008 52.0334 389.785 55.3211 391.337 58.2111C392.89 61.1012 395.033 63.3747 397.76 65.0318C400.487 66.6359 403.592 67.438 407.076 67.438C410.287 67.438 413.074 66.6889 415.429 65.1909C415.821 64.9457 416.192 64.6805 416.551 64.4021V66.4768C416.551 69.3138 415.827 71.4217 414.381 72.8137C412.988 74.2587 411.196 74.9812 409 74.9812C406.963 74.9812 405.278 74.5503 403.944 73.6952C402.896 72.9992 401.847 71.9254 400.799 70.4804C400.374 69.8971 399.598 69.685 398.954 70.0032L392.12 73.3903C391.417 73.735 391.132 74.5901 391.483 75.2861L391.569 75.465C392.744 77.9772 394.27 79.9591 396.148 81.4041C398.072 82.9022 400.135 83.9694 402.332 84.6123C404.581 85.2553 406.751 85.5734 408.834 85.5734C413.28 85.5734 417.022 84.6918 420.074 82.9287C423.179 81.2185 425.535 78.7329 427.14 75.4717C428.746 72.2105 429.549 68.2533 429.549 63.6001V31.5647C429.549 30.7826 428.912 30.1529 428.136 30.1529L428.149 30.133ZM415.025 53.8761C413.631 55.3211 411.866 56.0436 409.723 56.0436C407.58 56.0436 405.709 55.3211 404.262 53.8761C402.869 52.3781 402.172 50.5354 402.172 48.3414C402.172 46.0413 402.869 44.1721 404.262 42.7271C405.709 41.229 407.527 40.48 409.723 40.48C411.919 40.48 413.631 41.229 415.025 42.7271C416.471 44.1721 417.194 46.0413 417.194 48.3414C417.194 50.6414 416.471 52.3781 415.025 53.8761Z" fill="#292F36"/>
<path d="M385.498 29.5629C385.22 29.4635 384.901 29.3839 384.536 29.3309C383.84 29.1718 383.063 29.0923 382.207 29.0923C380.442 29.0923 378.73 29.5496 377.065 30.4577C375.459 31.3128 374.013 32.327 372.726 33.5068V31.5514C372.726 30.7693 372.095 30.1396 371.312 30.1396H362.66C361.877 30.1396 361.247 30.7693 361.247 31.5514V68.0345C361.247 68.8167 361.877 69.4464 362.66 69.4464H372.839C373.621 69.4464 374.252 68.81 374.252 68.0345V44.1787C374.603 43.9135 374.975 43.6683 375.373 43.4562C377.463 42.3359 380.164 41.7725 383.481 41.7725H384.715C385.498 41.7725 386.129 41.1428 386.129 40.3607V30.6301C386.129 30.1727 385.91 29.7286 385.478 29.5762L385.498 29.5629Z" fill="#292F36"/>
<path d="M347.393 31.8166C344.288 30.0004 340.645 29.0923 336.471 29.0923C332.298 29.0923 328.735 30.0004 325.63 31.8166C322.524 33.5798 320.089 36.0124 318.324 39.1145C316.559 42.2166 315.677 45.8026 315.677 49.8659C315.677 53.9291 316.559 57.4356 318.324 60.5377C320.089 63.6398 322.524 66.0725 325.63 67.8356C328.735 69.5988 332.351 70.4804 336.471 70.4804C340.592 70.4804 344.288 69.5988 347.393 67.8356C350.551 66.0725 352.986 63.6398 354.698 60.5377C356.463 57.4356 357.345 53.8827 357.345 49.8659C357.345 45.849 356.463 42.2166 354.698 39.1145C352.986 36.0124 350.551 33.5798 347.393 31.8166ZM342.012 55.6393C340.565 57.0843 338.721 57.8068 336.471 57.8068C334.222 57.8068 332.457 57.0578 331.011 55.5597C329.564 54.0617 328.841 52.1394 328.841 49.7863C328.841 47.4332 329.564 45.4513 331.011 44.013C332.457 42.5149 334.275 41.7659 336.471 41.7659C338.668 41.7659 340.565 42.5149 342.012 44.013C343.458 45.458 344.181 47.3802 344.181 49.7863C344.181 52.1925 343.458 54.1479 342.012 55.6393Z" fill="#292F36"/>
<path d="M307.536 54.1147C306.248 53.3127 304.749 52.9083 303.037 52.9083C301.484 52.9083 300.038 53.3127 298.698 54.1147C297.357 54.9167 296.289 55.9839 295.486 57.3229C294.737 58.6088 294.365 60.0472 294.365 61.6579C294.365 63.2686 294.743 64.654 295.486 65.9929C296.289 67.3319 297.357 68.399 298.698 69.2011C300.038 70.0031 301.511 70.4075 303.117 70.4075C304.722 70.4075 306.248 70.0031 307.536 69.2011C308.876 68.399 309.918 67.3319 310.667 65.9929C311.47 64.654 311.875 63.209 311.875 61.6579C311.875 60.1068 311.47 58.6088 310.667 57.3229C309.918 55.9839 308.876 54.9167 307.536 54.1147Z" fill="#292F36"/>
<path d="M280.285 31.8962C277.339 30.0269 273.809 29.0857 269.689 29.0857C265.569 29.0857 262.244 29.9938 259.252 31.81C256.306 33.5732 254.004 36.0058 252.345 39.1079C250.686 42.21 249.857 45.7629 249.857 49.7797C249.857 53.7966 250.686 57.5616 252.345 60.6107C254.004 63.6597 256.306 66.0128 259.252 67.67C262.251 69.3271 265.728 70.1556 269.689 70.1556C273.969 70.1556 277.717 69.2741 280.929 67.5109C283.702 65.9399 285.892 63.9183 287.511 61.4326C287.935 60.7764 287.677 59.908 286.987 59.5368L280.71 56.1696C280.06 55.8249 279.263 56.037 278.799 56.6004C278.036 57.535 277.14 58.3371 276.112 59.0066C274.771 59.8616 272.953 60.2925 270.651 60.2925C267.758 60.2925 265.509 59.57 263.903 58.125C262.682 56.9849 261.926 55.4869 261.634 53.6309H288.095C288.745 53.6309 289.309 53.1868 289.382 52.5438C289.402 52.3582 289.422 52.1594 289.435 51.9473C289.488 51.2513 289.515 50.4757 289.515 49.6207C289.515 45.8226 288.712 42.4023 287.106 39.3532C285.5 36.2511 283.225 33.7654 280.279 31.8895L280.285 31.8962ZM269.848 39.1146C272.635 39.1146 274.692 39.9166 276.032 41.5207C276.815 42.4619 277.366 43.5623 277.691 44.8084H261.806C262.158 43.4562 262.802 42.3028 263.75 41.3616C265.25 39.8636 267.28 39.1146 269.855 39.1146H269.848Z" fill="#292F36"/>
<path d="M244.94 14.808H234.762C233.979 14.808 233.348 15.4377 233.348 16.2198V31.684C233.216 31.5912 233.083 31.4984 232.944 31.4123C230.429 29.8612 227.456 29.0857 224.033 29.0857C220.609 29.0857 217.424 29.9673 214.637 31.7304C211.904 33.4936 209.741 35.9528 208.135 39.1079C206.582 42.21 205.806 45.7629 205.806 49.7797C205.806 53.7966 206.582 57.2964 208.135 60.4516C209.688 63.6067 211.831 66.0659 214.558 67.829C217.291 69.5922 220.39 70.4738 223.873 70.4738C227.357 70.4738 230.19 69.6452 232.705 67.9881C233.149 67.6965 233.574 67.3783 233.992 67.0469V68.0146C233.992 68.7968 234.622 69.4265 235.405 69.4265H244.94C245.723 69.4265 246.353 68.7968 246.353 68.0146V16.2265C246.353 15.4443 245.723 14.8146 244.94 14.8146V14.808ZM231.816 55.7255C230.369 57.2235 228.578 57.9725 226.435 57.9725C224.291 57.9725 222.58 57.2235 221.133 55.7255C219.74 54.1744 219.043 52.1925 219.043 49.7864C219.043 47.3802 219.74 45.4845 221.133 43.9334C222.58 42.3294 224.345 41.5273 226.435 41.5273C228.525 41.5273 230.369 42.3294 231.816 43.9334C233.262 45.4845 233.985 47.4333 233.985 49.7864C233.985 52.1395 233.262 54.1744 231.816 55.7255Z" fill="#292F36"/>
<path d="M192.343 31.8166C189.238 30.0004 185.595 29.0923 181.422 29.0923C177.249 29.0923 173.685 30.0004 170.58 31.8166C167.475 33.5798 165.04 36.0124 163.275 39.1145C161.51 42.2166 160.628 45.8026 160.628 49.8659C160.628 53.9291 161.51 57.4356 163.275 60.5377C165.04 63.6398 167.475 66.0725 170.58 67.8356C173.685 69.5988 177.302 70.4804 181.422 70.4804C185.542 70.4804 189.238 69.5988 192.343 67.8356C195.502 66.0725 197.937 63.6398 199.649 60.5377C201.414 57.4356 202.296 53.8827 202.296 49.8659C202.296 45.849 201.414 42.2166 199.649 39.1145C197.937 36.0124 195.502 33.5798 192.343 31.8166ZM186.969 55.6393C185.523 57.0843 183.678 57.8068 181.429 57.8068C179.179 57.8068 177.414 57.0578 175.968 55.5597C174.521 54.0617 173.798 52.1394 173.798 49.7863C173.798 47.4332 174.521 45.4513 175.968 44.013C177.414 42.5149 179.232 41.7659 181.429 41.7659C183.625 41.7659 185.523 42.5149 186.969 44.013C188.415 45.458 189.139 47.3802 189.139 49.7863C189.139 52.1925 188.415 54.1479 186.969 55.6393Z" fill="#292F36"/>
<path d="M140.364 41.766C142.129 41.766 143.549 42.1968 144.617 43.0519C145.373 43.6153 146.03 44.3577 146.601 45.2658C147.012 45.922 147.835 46.2402 148.545 45.922L157.708 41.7594C158.385 41.4544 158.717 40.6657 158.405 39.9896C156.985 36.8676 154.822 34.3289 151.929 32.3867C148.664 30.1927 144.756 29.099 140.205 29.099C136.19 29.099 132.654 30.0071 129.608 31.8233C126.609 33.5865 124.254 36.0191 122.542 39.1212C120.83 42.2234 119.974 45.7497 119.974 49.7069C119.974 53.6641 120.83 57.3031 122.542 60.4582C124.254 63.6134 126.609 66.0726 129.608 67.8357C132.661 69.5989 136.19 70.4805 140.205 70.4805C144.703 70.4805 148.585 69.3868 151.849 67.1928C154.789 65.2042 156.972 62.6456 158.405 59.5236C158.717 58.8409 158.378 58.0521 157.695 57.7472L148.525 53.7038C147.828 53.3989 147.019 53.7038 146.608 54.3468C146.037 55.2284 145.38 55.9575 144.624 56.5209C143.555 57.323 142.136 57.7273 140.371 57.7273C138.281 57.7273 136.516 57.0313 135.069 55.6394C133.676 54.1944 132.979 52.2191 132.979 49.7003C132.979 47.1814 133.676 45.3652 135.069 43.9269C136.516 42.4819 138.281 41.7594 140.371 41.7594L140.364 41.766Z" fill="#292F36"/>
</g>
<g clip-path="url(#clip1_9197_1100)">
<rect x="4.27448" y="1.34473" width="37.8197" height="42.5552" fill="white"/>
<rect x="57.1179" y="1.34473" width="34.9763" height="42.5552" fill="white"/>
<rect x="54.2745" y="53.4053" width="37.8197" height="40.4946" fill="white"/>
<rect x="4.27448" y="53.4053" width="37.8197" height="40.4946" fill="white"/>
<path d="M89.9965 50.7555H57.8831C54.2602 50.7555 51.3176 53.6981 51.3176 57.3211V89.4344C51.3176 93.0574 54.2602 96 57.8831 96H89.9965C93.6195 96 96.5621 93.0574 96.5621 89.4344V57.3211C96.5621 53.6981 93.6195 50.7555 89.9965 50.7555ZM81.2595 82.0524C81.2595 82.2679 81.1744 82.4663 81.027 82.6194C80.8739 82.7725 80.6755 82.8575 80.46 82.8575C77.9767 82.8575 69.6592 82.8462 67.6634 82.8462C67.1531 82.8462 66.7166 82.4096 66.7166 81.888V64.8618C66.7166 64.3288 67.1305 63.915 67.6634 63.915C69.6138 63.915 77.7442 63.9093 80.1935 63.9036C80.409 63.9036 80.6074 63.9887 80.7605 64.1361C80.9136 64.2892 80.993 64.4876 80.993 64.7031V65.6953C80.993 66.1375 80.6301 66.5004 80.1879 66.5004H69.5798V72.017L79.9384 72.0057C80.375 72.0057 80.7378 72.3629 80.7435 72.7994L80.7548 73.7973C80.7548 74.0128 80.6755 74.2169 80.5224 74.37C80.3693 74.523 80.1652 74.6081 79.9497 74.6081L69.5798 74.6194V80.2495H80.4487C80.8909 80.2495 81.2538 80.6123 81.2538 81.0546V82.0468L81.2595 82.0524Z" fill="#292F36"/>
<path d="M89.9965 0H57.8831C54.2602 0 51.3176 2.94259 51.3176 6.56556V38.679C51.3176 42.3019 54.2602 45.2445 57.8831 45.2445H89.9965C93.6195 45.2445 96.5621 42.3019 96.5621 38.679V6.56556C96.5621 2.94259 93.6195 0 89.9965 0ZM83.3119 26.6251C82.813 27.8498 82.0986 28.9327 81.1801 29.8512C80.2786 30.7527 79.207 31.4557 77.9823 31.9546C76.7577 32.4536 75.414 32.703 73.9795 32.703C72.5451 32.703 71.1673 32.4536 69.9256 31.9546C68.701 31.4557 67.6181 30.7527 66.6996 29.8512C65.7811 28.9327 65.0553 27.8498 64.5394 26.6251C64.0405 25.4004 63.791 24.0567 63.791 22.6223C63.791 21.1878 64.0405 19.8157 64.5394 18.5911C65.0553 17.3664 65.7811 16.2892 66.6996 15.3933C67.6181 14.4975 68.701 13.7888 69.9256 13.2899C71.1673 12.7909 72.5337 12.5415 73.9852 12.5415C75.4366 12.5415 76.7633 12.7909 77.988 13.2899C79.2127 13.7888 80.2843 14.4918 81.1857 15.3933C82.1042 16.2892 82.8186 17.3664 83.3176 18.5911C83.8335 19.8157 84.0943 21.1708 84.0943 22.6223C84.0943 24.0737 83.8335 25.4004 83.3176 26.6251H83.3119Z" fill="#292F36"/>
<path d="M77.5798 16.4082C76.5366 15.7959 75.3232 15.4784 73.9795 15.4784C72.6358 15.4784 71.4168 15.7902 70.3509 16.4082C69.285 17.0262 68.4345 17.8767 67.8222 18.9369C67.2042 19.9972 66.8923 21.2388 66.8923 22.6223C66.8923 24.0057 67.2042 25.2247 67.8222 26.3076C68.4345 27.3678 69.2906 28.2183 70.3509 28.8363C71.4168 29.4543 72.6358 29.7661 73.9795 29.7661C75.3232 29.7661 76.5366 29.4543 77.5798 28.8363C78.623 28.2183 79.4565 27.3678 80.0518 26.3076C80.6698 25.2247 80.9816 23.983 80.9816 22.6223C80.9816 21.2615 80.6698 20.0028 80.0518 18.9369C79.4565 17.871 78.623 17.0206 77.5798 16.4082Z" fill="#292F36"/>
<path d="M39.241 0H7.12763C3.50467 0 0.562073 2.94259 0.562073 6.56556V38.679C0.562073 42.3019 3.50467 45.2445 7.12763 45.2445H39.241C42.864 45.2445 45.8066 42.3019 45.8066 38.679V6.56556C45.8066 2.94259 42.864 0 39.241 0ZM32.1879 28.6719C31.4054 29.7378 30.4586 30.6393 29.37 31.3423C27.9526 32.2438 26.1099 32.6974 23.8987 32.6974C21.9313 32.6974 20.1794 32.2608 18.6882 31.399C17.2141 30.5202 16.0518 29.3069 15.2297 27.7987C14.4076 26.2679 13.9937 24.5273 13.9937 22.6223C13.9937 21.1708 14.2431 19.8157 14.7421 18.5911C15.241 17.3664 15.9384 16.2948 16.8172 15.3933C17.7187 14.4918 18.7733 13.7888 19.9582 13.2899C21.1602 12.7909 22.4869 12.5415 23.9044 12.5415C26.1156 12.5415 27.9582 13.0064 29.3757 13.9249C30.4643 14.6166 31.4111 15.5011 32.1935 16.567C32.375 16.8164 32.426 17.1283 32.3296 17.4174C32.2276 17.7293 31.9724 17.9674 31.6549 18.0638L30.6457 18.3643C30.2375 18.4833 29.7839 18.3416 29.5004 17.9957C28.7577 17.0999 27.9582 16.4706 27.1248 16.1247C26.1496 15.6938 25.0723 15.4784 23.9101 15.4784C22.623 15.4784 21.4494 15.7902 20.4232 16.4025C19.4196 17.0149 18.6032 17.871 18.0079 18.9313C17.4125 19.9972 17.1064 21.2332 17.1064 22.6166C17.1064 24 17.4069 25.219 18.0079 26.3019C18.6032 27.3622 19.4196 28.2183 20.4232 28.8306C21.4494 29.4429 22.6173 29.7548 23.9044 29.7548C25.0667 29.7548 26.1439 29.545 27.1135 29.1368C27.9469 28.7739 28.7463 28.1332 29.4947 27.2374C29.7782 26.8916 30.2318 26.7498 30.64 26.8689L31.6492 27.1694C31.9667 27.2658 32.2219 27.5039 32.3239 27.8157C32.4203 28.1106 32.375 28.4224 32.1935 28.6719H32.1879Z" fill="#292F36"/>
<path d="M25.8945 67.2374C24.8853 66.7158 23.74 66.4493 22.487 66.4493H17.7017V80.3062H22.4586C23.7116 80.3062 24.8569 80.0624 25.8661 79.5748C26.8867 79.0702 27.7201 78.3104 28.3325 77.3012C28.9448 76.2977 29.2566 74.988 29.2566 73.4175C29.2566 71.8469 28.9448 70.6166 28.3325 69.5904C27.7372 68.5471 26.915 67.7534 25.8945 67.2318V67.2374Z" fill="#292F36"/>
<path d="M39.241 50.7555H7.12763C3.50467 50.7555 0.562073 53.6981 0.562073 57.3211V89.4344C0.562073 93.0574 3.50467 96 7.12763 96H39.241C42.864 96 45.8066 93.0574 45.8066 89.4344V57.3211C45.8066 53.6981 42.864 50.7555 39.241 50.7555ZM31.1276 78.747C30.2885 80.1814 29.1092 81.2984 27.6407 82.0638C26.1666 82.8065 24.477 83.1864 22.606 83.1864H15.859C15.1957 83.1864 14.657 82.6478 14.657 81.9844V64.7768C14.657 64.1134 15.1957 63.5748 15.859 63.5748H22.6344C24.5054 63.5748 26.2006 63.9717 27.6691 64.7541C29.1432 65.5365 30.3169 66.6818 31.156 68.1559C31.9951 69.6074 32.426 71.382 32.426 73.4231C32.426 75.4642 31.9894 77.2955 31.1276 78.747Z" fill="#292F36"/>
</g>
<defs>
<clipPath id="clip0_9197_1100">
<rect width="429" height="96" fill="white" transform="translate(0.562073)"/>
</clipPath>
<clipPath id="clip1_9197_1100">
<rect width="96" height="96" fill="white" transform="translate(0.562073)"/>
</clipPath>
</defs>
</svg>
